<svg xmlns="http://www.w3.org/2000/svg">

  <symbol viewBox="0 0 24 24" id="home"> 
    <path stroke="#1C274C" stroke-linecap="round" stroke-width="1.5" d="M22 22H2M2 11l8.126-6.5a3 3 0 0 1 3.748 0L22 11M15.5 5.5v-2A.5.5 0 0 1 16 3h2.5a.5.5 0 0 1 .5.5v5M4 22V9.5M20 22V9.5"/><path stroke="#1C274C" stroke-width="1.5" d="M15 22v-5c0-1.414 0-2.121-.44-2.56C14.122 14 13.415 14 12 14c-1.414 0-2.121 0-2.56.44C9 14.878 9 15.585 9 17v5M14 9.5a2 2 0 1 1-4 0 2 2 0 0 1 4 0Z"/>
  </symbol>
  
  <symbol viewBox="0 0 24 24" id="gallery">
    <path d="M18 8C18 9.10457 17.1046 10 16 10C14.8954 10 14 9.10457 14 8C14 6.89543 14.8954 6 16 6C17.1046 6 18 6.89543 18 8Z" fill="#1C274C"/>
    <path fill-rule="evenodd" clip-rule="evenodd" d="M11.9426 1.25H12.0574C14.3658 1.24999 16.1748 1.24998 17.5863 1.43975C19.031 1.63399 20.1711 2.03933 21.0659 2.93414C21.9607 3.82895 22.366 4.96897 22.5603 6.41371C22.75 7.82519 22.75 9.63423 22.75 11.9426V12.0309C22.75 13.9397 22.75 15.5023 22.6463 16.7745C22.5422 18.0531 22.3287 19.1214 21.8509 20.0087C21.6401 20.4001 21.3812 20.7506 21.0659 21.0659C20.1711 21.9607 19.031 22.366 17.5863 22.5603C16.1748 22.75 14.3658 22.75 12.0574 22.75H11.9426C9.63423 22.75 7.82519 22.75 6.41371 22.5603C4.96897 22.366 3.82895 21.9607 2.93414 21.0659C2.14086 20.2726 1.7312 19.2852 1.51335 18.0604C1.29935 16.8573 1.2602 15.3603 1.25207 13.5015C1.25 13.0287 1.25 12.5286 1.25 12.001V11.9426C1.24999 9.63424 1.24998 7.82519 1.43975 6.41371C1.63399 4.96897 2.03933 3.82895 2.93414 2.93414C3.82895 2.03933 4.96897 1.63399 6.41371 1.43975C7.82519 1.24998 9.63424 1.24999 11.9426 1.25ZM6.61358 2.92637C5.33517 3.09825 4.56445 3.42514 3.9948 3.9948C3.42514 4.56445 3.09825 5.33517 2.92637 6.61358C2.75159 7.91356 2.75 9.62178 2.75 12C2.75 12.2905 2.75 12.5715 2.75034 12.8435L3.75148 11.9675C4.66275 11.1702 6.03617 11.2159 6.89238 12.0721L11.1821 16.3618C11.8693 17.0491 12.9511 17.1428 13.7463 16.5839L14.0445 16.3744C15.1887 15.5702 16.7368 15.6634 17.7764 16.599L20.6068 19.1463C20.8917 18.548 21.0609 17.7618 21.1513 16.6527C21.2494 15.4482 21.25 13.9459 21.25 12C21.25 9.62178 21.2484 7.91356 21.0736 6.61358C20.9018 5.33517 20.5749 4.56445 20.0052 3.9948C19.4355 3.42514 18.6648 3.09825 17.3864 2.92637C16.0864 2.75159 14.3782 2.75 12 2.75C9.62178 2.75 7.91356 2.75159 6.61358 2.92637Z" fill="#1C274C"/>
</symbol>

<symbol viewBox="0 0 24 24" fill="none" id="home_works-sprite">
  <path d="M9 13L12 16M12 16L15 13M12 16V8M7.2 20H16.8C17.9201 20 18.4802 20 18.908 19.782C19.2843 19.5903 19.5903 19.2843 19.782 18.908C20 18.4802 20 17.9201 20 16.8V7.2C20 6.0799 20 5.51984 19.782 5.09202C19.5903 4.71569 19.2843 4.40973 18.908 4.21799C18.4802 4 17.9201 4 16.8 4H7.2C6.0799 4 5.51984 4 5.09202 4.21799C4.71569 4.40973 4.40973 4.71569 4.21799 5.09202C4 5.51984 4 6.07989 4 7.2V16.8C4 17.9201 4 18.4802 4.21799 18.908C4.40973 19.2843 4.71569 19.5903 5.09202 19.782C5.51984 20 6.07989 20 7.2 20Z" stroke="#000000" stroke-width="2" stroke-linecap="round" stroke-linejoin="round"/>
</symbol>

<symbol viewBox="0 0 24 24" fill="none" id="flex">
  <path d="M11 9L8 12M8 12L11 15M8 12H16M7.2 20H16.8C17.9201 20 18.4802 20 18.908 19.782C19.2843 19.5903 19.5903 19.2843 19.782 18.908C20 18.4802 20 17.9201 20 16.8V7.2C20 6.0799 20 5.51984 19.782 5.09202C19.5903 4.71569 19.2843 4.40973 18.908 4.21799C18.4802 4 17.9201 4 16.8 4H7.2C6.0799 4 5.51984 4 5.09202 4.21799C4.71569 4.40973 4.40973 4.71569 4.21799 5.09202C4 5.51984 4 6.07989 4 7.2V16.8C4 17.9201 4 18.4802 4.21799 18.908C4.40973 19.2843 4.71569 19.5903 5.09202 19.782C5.51984 20 6.07989 20 7.2 20Z" stroke="#000000" stroke-width="2" stroke-linecap="round" stroke-linejoin="round"/>
</symbol>

<symbol viewBox="-8 0 512 512" id="smile">
  <path d="M248 8C111 8 0 119 0 256s111 248 248 248 248-111 248-248S385 8 248 8zm0 448c-110.3 0-200-89.7-200-200S137.7 56 248 56s200 89.7 200 200-89.7 200-200 200zm-80-216c17.7 0 32-14.3 32-32s-14.3-32-32-32-32 14.3-32 32 14.3 32 32 32zm160 0c17.7 0 32-14.3 32-32s-14.3-32-32-32-32 14.3-32 32 14.3 32 32 32zm4 72.6c-20.8 25-51.5 39.4-84 39.4s-63.2-14.3-84-39.4c-8.5-10.2-23.7-11.5-33.8-3.1-10.2 8.5-11.5 23.6-3.1 33.8 30 36 74.1 56.6 120.9 56.6s90.9-20.6 120.9-56.6c8.5-10.2 7.1-25.3-3.1-33.8-10.1-8.4-25.3-7.1-33.8 3.1z"/>
</symbol>

<symbol viewBox="0 0 24 24" id="snow">
  <path d="M11.9994 3V7M11.9994 7V17M11.9994 7L8.99943 4M11.9994 7L14.9994 4M11.9994 17V21M11.9994 17L8.99943 20M11.9994 17L14.9994 20M4.20624 7.49999L7.67034 9.49999M7.67034 9.49999L16.3306 14.5M7.67034 9.49999L3.57227 10.5981M7.67034 9.49999L6.57227 5.40191M16.3306 14.5L19.7947 16.5M16.3306 14.5L17.4287 18.5981M16.3306 14.5L20.4287 13.4019M4.2067 16.5L7.6708 14.5M7.6708 14.5L16.3311 9.49999M7.6708 14.5L3.57273 13.4019M7.6708 14.5L6.57273 18.5981M16.3311 9.49999L19.7952 7.49999M16.3311 9.49999L17.4291 5.40192M16.3311 9.49999L20.4291 10.5981" stroke="#000000" stroke-width="2" stroke-linecap="round" stroke-linejoin="round"/>
</symbol>

<symbol viewBox="0 0 24 24" id="umbrella"> 
  <path d="M8 19C8 20.1046 8.89543 21 10 21C11.1046 21 12 20.1046 12 19V11M12 11C13.1256 11 14.1643 11.3719 15 11.9996C15.8357 11.3719 16.8744 11 18 11C19.1258 11 20.1643 11.3721 21 12C21 7.02944 16.9706 3 12 3C7.02944 3 3 7.02944 3 12C3.83566 11.3723 4.87439 11 6 11C7.12561 11 8.16434 11.3719 9 11.9996C9.83566 11.3719 10.8744 11 12 11Z" stroke="#000000" stroke-width="2" stroke-linecap="round" stroke-linejoin="round"/>
</symbol>

<symbol fill="none" viewBox="0 0 24 24" id="hourglass">
  <path d="M15 18H9M14 6H10M20 3H19M19 3H5M19 3C19 5.51022 17.7877 7.86592 15.7451 9.32495L12 12M5 3H4M5 3C5 5.51022 6.21228 7.86592 8.25493 9.32495L12 12M20 21H19M19 21H5M19 21C19 18.4898 17.7877 16.1341 15.7451 14.675L12 12M5 21H4M5 21C5 18.4898 6.21228 16.1341 8.25493 14.675L12 12" stroke="#000000" stroke-width="2" stroke-linecap="round" stroke-linejoin="round"/>
</symbol>

</svg>